<svg width="274" height="274" viewBox="0 0 274 274" fill="none" xmlns="http://www.w3.org/2000/svg">
<rect width="273.223" height="273.223" fill="#090909"/>
<path d="M51.3246 77.8304C51.0564 77.8304 50.8075 77.7346 50.5776 77.5431C50.3861 77.3516 50.2904 77.1217 50.2904 76.8536C50.2904 76.5855 50.7309 75.9535 51.6118 74.9576C52.5311 73.9617 53.6037 72.9083 54.8294 71.7975C56.0551 70.6484 57.5107 69.6908 59.196 68.9247C60.8814 68.1586 62.5859 67.7564 64.3096 67.7181C65.4587 67.7181 66.3589 68.0054 67.01 68.5799C67.6612 69.1162 67.9868 69.7482 67.9868 70.476C67.9868 71.2038 67.3356 72.3146 66.0333 73.8084C64.731 75.264 63.5818 75.9918 62.5859 75.9918C62.3561 75.9918 61.9731 75.8577 61.4368 75.5896C60.9389 75.2831 60.4218 75.1299 59.8855 75.1299C59.3876 75.1299 58.2193 75.398 56.3807 75.9343C54.5804 76.4323 53.3547 76.8728 52.7035 77.2558C52.0906 77.6388 51.631 77.8304 51.3246 77.8304ZM49.7158 81.1053L50.118 60.8234C50.0414 60.6319 49.9265 60.5361 49.7733 60.5361C49.1221 60.5744 48.605 60.7851 48.2219 61.1681C47.8772 61.5129 47.7048 61.8767 47.7048 62.2598C47.7048 62.6428 47.6474 64.5772 47.5325 68.0628C47.1111 78.5198 46.9005 85.6252 46.9005 89.379L46.9579 94.3202V95.182C46.9579 95.4885 47.0728 95.8715 47.3026 96.3312C47.5708 96.7908 47.9155 97.0206 48.3369 97.0206C48.7965 97.0206 49.2753 96.8483 49.7733 96.5035C50.3095 96.1588 50.5776 95.6992 50.5776 95.1246C50.5776 94.5883 50.4244 92.405 50.118 88.5746C49.8499 84.7059 49.7158 82.2162 49.7158 81.1053ZM68.6763 54.5607L65.6886 54.2734C61.0538 54.2734 52.2247 57.8931 39.2014 65.1326C38.8183 65.3241 38.5502 65.4199 38.397 65.4199C38.2821 65.4199 38.2246 65.1517 38.2246 64.6155C38.2246 64.0409 38.4736 62.8535 38.9715 61.0532C39.4695 59.2529 39.9674 58.1996 40.4654 57.8931C52.7227 50.5388 62.9881 46.8616 71.2618 46.8616C73.3302 46.8616 74.3644 47.5319 74.3644 48.8726C74.3644 49.7535 73.6749 50.9218 72.296 52.3774C70.9553 53.8329 69.7488 54.5607 68.6763 54.5607ZM73.5506 87.5979C71.7503 87.5979 70.3331 87.1382 69.2989 86.2189C68.2646 85.2996 67.6709 84.1314 67.5177 82.7141C66.9049 83.1738 66.5984 84.0356 66.5984 85.2996C66.5984 86.5254 66.9432 87.617 67.6326 88.5746C68.3604 89.4939 69.2414 89.9536 70.2756 89.9536C71.3481 89.9536 72.1525 89.6854 72.6888 89.1492C73.2633 88.6129 73.5506 88.0958 73.5506 87.5979ZM75.7914 83.7483C75.9063 84.093 76.0404 84.2654 76.1936 84.2654C76.3851 84.2654 76.6915 84.1697 77.1129 83.9781C77.5342 83.7483 77.8981 83.6334 78.2045 83.6334C78.511 83.6334 78.6642 83.8249 78.6642 84.208C78.6642 84.591 78.2428 85.223 77.4001 86.104C76.5958 86.985 75.9063 87.4255 75.3317 87.4255C74.5273 89.6088 73.1867 91.6389 71.3098 93.5158C69.4712 95.3544 67.5752 96.2737 65.6217 96.2737C64.2427 96.2737 63.0936 95.8141 62.1743 94.8948C61.255 94.0138 60.7954 92.7114 60.7954 90.9878C60.7954 89.2258 61.5231 87.3297 62.9787 85.2996C64.4342 83.2312 65.9281 82.197 67.4603 82.197V81.9672C67.4603 81.1245 67.7475 80.4542 68.3221 79.9562C68.8967 79.42 69.6053 79.1518 70.448 79.1518C73.0526 79.1518 74.8338 80.684 75.7914 83.7483ZM77.9904 88.6895C77.9904 88.0767 78.5841 87.0808 79.7715 85.7018C80.959 84.2846 81.9166 83.5759 82.6443 83.5759C83.4104 83.5759 83.9658 83.8632 84.3106 84.4378C84.6936 85.0123 84.9234 85.6444 85 86.3338C85.0766 87.0233 85.2873 87.6553 85.6321 88.2299C86.0151 88.8044 86.5513 89.0917 87.2408 89.0917C87.9686 89.0917 88.6006 88.7853 89.1369 88.1724C89.7114 87.5213 90.1711 86.8126 90.5158 86.0466C90.8605 85.2422 91.3202 84.5335 91.8948 83.9207C92.4693 83.2695 93.0247 82.9439 93.561 82.9439C94.1355 82.9439 94.5377 83.1738 94.7675 83.6334C97.1424 88.7278 99.5555 91.275 102.007 91.275C102.39 91.275 102.735 91.2176 103.041 91.1027C103.348 90.9878 103.577 90.9303 103.731 90.9303C104.19 90.9303 104.42 91.2942 104.42 92.022C104.42 93.3243 103.731 94.4926 102.352 95.5268C101.011 96.561 99.6322 97.0781 98.2149 97.0781C96.7977 97.0781 95.5911 96.6184 94.5952 95.6992C93.6376 94.7799 92.9673 93.8414 92.5842 92.8838C92.2395 91.8879 91.9714 90.9303 91.7798 90.011C91.6266 89.0917 91.4543 88.6321 91.2627 88.6321C90.9563 88.6321 90.3434 89.2449 89.4241 90.4707C88.5432 91.6581 87.5281 92.8647 86.379 94.0904C85.2682 95.3161 84.2723 95.929 83.3913 95.929C82.472 95.8141 81.7442 95.3544 81.2079 94.55C80.6717 93.784 80.327 92.9796 80.1737 92.1369C79.829 89.8386 79.1012 88.6895 77.9904 88.6895ZM93.6952 75.9918C93.6952 75.2257 94.308 74.6511 95.5338 74.2681C97.4107 73.4637 100.475 72.2188 104.727 70.5334C105.493 64.7112 106.642 61.8001 108.174 61.8001C109.17 61.8001 109.668 63.3898 109.668 66.569C109.668 67.4883 109.649 68.1778 109.61 68.6374C115.433 66.4158 119.34 65.056 121.331 64.558C123.323 64.0601 124.913 63.8111 126.1 63.8111C127.901 63.8111 128.801 64.4623 128.801 65.7646C128.801 66.1859 128.533 66.5307 127.996 66.7988C125.622 67.9862 124.147 68.5799 123.572 68.5799C123.457 68.5799 123.266 68.5033 122.998 68.3501C122.73 68.1586 122.423 68.0628 122.078 68.0628C121.734 68.0628 121.025 68.1969 119.953 68.465C117.769 69.0396 114.188 70.1504 109.208 71.7975C108.749 74.7852 108.078 76.9302 107.197 78.2325C107.351 82.5992 107.925 85.5486 108.921 87.0808C109.381 87.8085 110.032 88.4405 110.875 88.9768C111.756 89.5131 112.828 89.7812 114.092 89.7812C115.356 89.7812 116.601 89.2066 117.827 88.0575C118.057 87.8277 118.248 87.7128 118.401 87.7128C118.708 87.7128 118.861 87.9618 118.861 88.4597C118.861 90.0685 117.788 91.6964 115.643 93.3435C113.498 94.9522 111.449 95.7566 109.496 95.7566C105.627 95.7566 103.693 92.6157 103.693 86.3338C103.693 82.3885 103.922 78.1368 104.382 73.5786C101.203 74.8043 98.8662 75.8002 97.3724 76.5663C95.8402 77.3324 94.9401 77.7154 94.6719 77.7154C94.4038 77.7154 94.174 77.5239 93.9825 77.1409C93.7909 76.7578 93.6952 76.3748 93.6952 75.9918ZM133.298 89.9536C133.605 89.9536 134.103 89.7237 134.792 89.2641C135.482 88.8044 136.037 88.3448 136.459 87.8851L137.091 87.2531C137.359 86.985 137.627 86.8509 137.895 86.8509C138.355 86.8509 138.584 87.1191 138.584 87.6553C138.584 87.8468 138.565 88.0001 138.527 88.115C137.531 90.5281 135.692 92.4625 133.011 93.918C130.33 95.4119 127.936 96.1588 125.829 96.1588C121.731 96.1588 119.681 94.55 119.681 91.3325C119.681 90.9112 120.179 90.2408 121.175 89.3215C122.171 88.4022 122.899 87.8277 123.359 87.5979C123.665 87.368 123.895 87.2531 124.048 87.2531C124.24 87.2531 124.393 87.3297 124.508 87.483C124.623 87.6362 124.757 87.8277 124.91 88.0575C125.063 88.2873 125.197 88.4789 125.312 88.6321C125.427 88.7853 125.58 88.996 125.772 89.2641C125.963 89.5322 126.155 89.762 126.346 89.9536C126.576 90.1068 126.825 90.26 127.093 90.4132C127.591 90.7962 128.108 90.9878 128.645 90.9878C129.219 90.9878 129.506 90.6622 129.506 90.011C129.506 88.4022 128.913 87.0233 127.725 85.8742C126.538 84.6868 125.542 84.093 124.738 84.093C124.546 84.093 124.355 84.208 124.163 84.4378L122.037 86.5637C121.692 86.9084 121.443 87.0808 121.29 87.0808C120.716 87.0808 120.428 86.8318 120.428 86.3338C124.527 81.316 126.959 78.8071 127.725 78.8071C128.798 78.8071 130.024 79.5349 131.402 80.9904C132.781 82.446 133.471 83.9015 133.471 85.3571C133.471 86.736 133.356 87.7894 133.126 88.5172C132.935 89.2449 132.839 89.6663 132.839 89.7812C132.839 89.8961 132.992 89.9536 133.298 89.9536ZM152.109 89.9536C152.415 89.9536 152.913 89.7237 153.602 89.2641C154.292 88.8044 154.847 88.3448 155.269 87.8851L155.901 87.2531C156.169 86.985 156.437 86.8509 156.705 86.8509C157.165 86.8509 157.395 87.1191 157.395 87.6553C157.395 87.8468 157.375 88.0001 157.337 88.115C156.341 90.5281 154.503 92.4625 151.821 93.918C149.14 95.4119 146.746 96.1588 144.639 96.1588C140.541 96.1588 138.492 94.55 138.492 91.3325C138.492 90.9112 138.989 90.2408 139.985 89.3215C140.981 88.4022 141.709 87.8277 142.169 87.5979C142.475 87.368 142.705 87.2531 142.858 87.2531C143.05 87.2531 143.203 87.3297 143.318 87.483C143.433 87.6362 143.567 87.8277 143.72 88.0575C143.873 88.2873 144.007 88.4789 144.122 88.6321C144.237 88.7853 144.39 88.996 144.582 89.2641C144.773 89.5322 144.965 89.762 145.156 89.9536C145.386 90.1068 145.635 90.26 145.903 90.4132C146.401 90.7962 146.918 90.9878 147.455 90.9878C148.029 90.9878 148.316 90.6622 148.316 90.011C148.316 88.4022 147.723 87.0233 146.535 85.8742C145.348 84.6868 144.352 84.093 143.548 84.093C143.356 84.093 143.165 84.208 142.973 84.4378L140.847 86.5637C140.502 86.9084 140.254 87.0808 140.1 87.0808C139.526 87.0808 139.238 86.8318 139.238 86.3338C143.337 81.316 145.769 78.8071 146.535 78.8071C147.608 78.8071 148.834 79.5349 150.213 80.9904C151.591 82.446 152.281 83.9015 152.281 85.3571C152.281 86.736 152.166 87.7894 151.936 88.5172C151.745 89.2449 151.649 89.6663 151.649 89.7812C151.649 89.8961 151.802 89.9536 152.109 89.9536ZM170.919 89.9536C171.225 89.9536 171.723 89.7237 172.413 89.2641C173.102 88.8044 173.657 88.3448 174.079 87.8851L174.711 87.2531C174.979 86.985 175.247 86.8509 175.515 86.8509C175.975 86.8509 176.205 87.1191 176.205 87.6553C176.205 87.8468 176.185 88.0001 176.147 88.115C175.151 90.5281 173.313 92.4625 170.631 93.918C167.95 95.4119 165.556 96.1588 163.449 96.1588C159.351 96.1588 157.302 94.55 157.302 91.3325C157.302 90.9112 157.8 90.2408 158.795 89.3215C159.791 88.4022 160.519 87.8277 160.979 87.5979C161.285 87.368 161.515 87.2531 161.668 87.2531C161.86 87.2531 162.013 87.3297 162.128 87.483C162.243 87.6362 162.377 87.8277 162.53 88.0575C162.683 88.2873 162.817 88.4789 162.932 88.6321C163.047 88.7853 163.2 88.996 163.392 89.2641C163.583 89.5322 163.775 89.762 163.967 89.9536C164.196 90.1068 164.445 90.26 164.713 90.4132C165.211 90.7962 165.728 90.9878 166.265 90.9878C166.839 90.9878 167.127 90.6622 167.127 90.011C167.127 88.4022 166.533 87.0233 165.345 85.8742C164.158 84.6868 163.162 84.093 162.358 84.093C162.166 84.093 161.975 84.208 161.783 84.4378L159.657 86.5637C159.313 86.9084 159.064 87.0808 158.91 87.0808C158.336 87.0808 158.049 86.8318 158.049 86.3338C162.147 81.316 164.579 78.8071 165.345 78.8071C166.418 78.8071 167.644 79.5349 169.023 80.9904C170.402 82.446 171.091 83.9015 171.091 85.3571C171.091 86.736 170.976 87.7894 170.746 88.5172C170.555 89.2449 170.459 89.6663 170.459 89.7812C170.459 89.8961 170.612 89.9536 170.919 89.9536ZM189.729 89.9536C190.035 89.9536 190.533 89.7237 191.223 89.2641C191.912 88.8044 192.467 88.3448 192.889 87.8851L193.521 87.2531C193.789 86.985 194.057 86.8509 194.325 86.8509C194.785 86.8509 195.015 87.1191 195.015 87.6553C195.015 87.8468 194.996 88.0001 194.957 88.115C193.961 90.5281 192.123 92.4625 189.441 93.918C186.76 95.4119 184.366 96.1588 182.259 96.1588C178.161 96.1588 176.112 94.55 176.112 91.3325C176.112 90.9112 176.61 90.2408 177.606 89.3215C178.601 88.4022 179.329 87.8277 179.789 87.5979C180.095 87.368 180.325 87.2531 180.478 87.2531C180.67 87.2531 180.823 87.3297 180.938 87.483C181.053 87.6362 181.187 87.8277 181.34 88.0575C181.493 88.2873 181.627 88.4789 181.742 88.6321C181.857 88.7853 182.011 88.996 182.202 89.2641C182.394 89.5322 182.585 89.762 182.777 89.9536C183.006 90.1068 183.255 90.26 183.524 90.4132C184.021 90.7962 184.539 90.9878 185.075 90.9878C185.649 90.9878 185.937 90.6622 185.937 90.011C185.937 88.4022 185.343 87.0233 184.156 85.8742C182.968 84.6868 181.972 84.093 181.168 84.093C180.976 84.093 180.785 84.208 180.593 84.4378L178.467 86.5637C178.123 86.9084 177.874 87.0808 177.72 87.0808C177.146 87.0808 176.859 86.8318 176.859 86.3338C180.957 81.316 183.389 78.8071 184.156 78.8071C185.228 78.8071 186.454 79.5349 187.833 80.9904C189.212 82.446 189.901 83.9015 189.901 85.3571C189.901 86.736 189.786 87.7894 189.556 88.5172C189.365 89.2449 189.269 89.6663 189.269 89.7812C189.269 89.8961 189.422 89.9536 189.729 89.9536ZM208.539 89.9536C208.845 89.9536 209.343 89.7237 210.033 89.2641C210.722 88.8044 211.278 88.3448 211.699 87.8851L212.331 87.2531C212.599 86.985 212.867 86.8509 213.135 86.8509C213.595 86.8509 213.825 87.1191 213.825 87.6553C213.825 87.8468 213.806 88.0001 213.767 88.115C212.771 90.5281 210.933 92.4625 208.252 93.918C205.57 95.4119 203.176 96.1588 201.07 96.1588C196.971 96.1588 194.922 94.55 194.922 91.3325C194.922 90.9112 195.42 90.2408 196.416 89.3215C197.412 88.4022 198.139 87.8277 198.599 87.5979C198.905 87.368 199.135 87.2531 199.288 87.2531C199.48 87.2531 199.633 87.3297 199.748 87.483C199.863 87.6362 199.997 87.8277 200.15 88.0575C200.303 88.2873 200.438 88.4789 200.552 88.6321C200.667 88.7853 200.821 88.996 201.012 89.2641C201.204 89.5322 201.395 89.762 201.587 89.9536C201.817 90.1068 202.065 90.26 202.334 90.4132C202.832 90.7962 203.349 90.9878 203.885 90.9878C204.459 90.9878 204.747 90.6622 204.747 90.011C204.747 88.4022 204.153 87.0233 202.966 85.8742C201.778 84.6868 200.782 84.093 199.978 84.093C199.786 84.093 199.595 84.208 199.403 84.4378L197.277 86.5637C196.933 86.9084 196.684 87.0808 196.531 87.0808C195.956 87.0808 195.669 86.8318 195.669 86.3338C199.767 81.316 202.2 78.8071 202.966 78.8071C204.038 78.8071 205.264 79.5349 206.643 80.9904C208.022 82.446 208.711 83.9015 208.711 85.3571C208.711 86.736 208.596 87.7894 208.366 88.5172C208.175 89.2449 208.079 89.6663 208.079 89.7812C208.079 89.8961 208.232 89.9536 208.539 89.9536ZM227.349 89.9536C227.655 89.9536 228.153 89.7237 228.843 89.2641C229.532 88.8044 230.088 88.3448 230.509 87.8851L231.141 87.2531C231.409 86.985 231.677 86.8509 231.945 86.8509C232.405 86.8509 232.635 87.1191 232.635 87.6553C232.635 87.8468 232.616 88.0001 232.577 88.115C231.582 90.5281 229.743 92.4625 227.062 93.918C224.38 95.4119 221.986 96.1588 219.88 96.1588C215.781 96.1588 213.732 94.55 213.732 91.3325C213.732 90.9112 214.23 90.2408 215.226 89.3215C216.222 88.4022 216.949 87.8277 217.409 87.5979C217.716 87.368 217.945 87.2531 218.099 87.2531C218.29 87.2531 218.443 87.3297 218.558 87.483C218.673 87.6362 218.807 87.8277 218.96 88.0575C219.114 88.2873 219.248 88.4789 219.363 88.6321C219.477 88.7853 219.631 88.996 219.822 89.2641C220.014 89.5322 220.205 89.762 220.397 89.9536C220.627 90.1068 220.876 90.26 221.144 90.4132C221.642 90.7962 222.159 90.9878 222.695 90.9878C223.27 90.9878 223.557 90.6622 223.557 90.011C223.557 88.4022 222.963 87.0233 221.776 85.8742C220.588 84.6868 219.592 84.093 218.788 84.093C218.596 84.093 218.405 84.208 218.213 84.4378L216.088 86.5637C215.743 86.9084 215.494 87.0808 215.341 87.0808C214.766 87.0808 214.479 86.8318 214.479 86.3338C218.577 81.316 221.01 78.8071 221.776 78.8071C222.848 78.8071 224.074 79.5349 225.453 80.9904C226.832 82.446 227.521 83.9015 227.521 85.3571C227.521 86.736 227.406 87.7894 227.177 88.5172C226.985 89.2449 226.889 89.6663 226.889 89.7812C226.889 89.8961 227.043 89.9536 227.349 89.9536ZM53.7377 132.954C54.0441 132.954 54.5421 132.724 55.2316 132.264C55.921 131.804 56.4764 131.345 56.8978 130.885L57.5298 130.253C57.7979 129.985 58.0661 129.851 58.3342 129.851C58.7938 129.851 59.0237 130.119 59.0237 130.655C59.0237 130.847 59.0045 131 58.9662 131.115C57.9703 133.528 56.1317 135.462 53.4504 136.918C50.7692 138.412 48.3752 139.159 46.2684 139.159C42.1699 139.159 40.1207 137.55 40.1207 134.332C40.1207 133.911 40.6186 133.241 41.6145 132.322C42.6104 131.402 43.3382 130.828 43.7978 130.598C44.1043 130.368 44.3341 130.253 44.4873 130.253C44.6788 130.253 44.832 130.33 44.947 130.483C45.0619 130.636 45.1959 130.828 45.3491 131.058C45.5024 131.287 45.6364 131.479 45.7513 131.632C45.8663 131.785 46.0195 131.996 46.211 132.264C46.4025 132.532 46.594 132.762 46.7855 132.954C47.0154 133.107 47.2643 133.26 47.5325 133.413C48.0304 133.796 48.5475 133.988 49.0838 133.988C49.6583 133.988 49.9456 133.662 49.9456 133.011C49.9456 131.402 49.3519 130.023 48.1645 128.874C46.9771 127.687 45.9812 127.093 45.1768 127.093C44.9853 127.093 44.7937 127.208 44.6022 127.438L42.4763 129.564C42.1316 129.908 41.8826 130.081 41.7294 130.081C41.1549 130.081 40.8676 129.832 40.8676 129.334C44.9661 124.316 47.3984 121.807 48.1645 121.807C49.237 121.807 50.4627 122.535 51.8417 123.99C53.2206 125.446 53.9101 126.902 53.9101 128.357C53.9101 129.736 53.7952 130.789 53.5653 131.517C53.3738 132.245 53.2781 132.666 53.2781 132.781C53.2781 132.896 53.4313 132.954 53.7377 132.954ZM73.1224 132.954C73.4288 132.954 73.9267 132.724 74.6162 132.264C75.3057 131.804 75.8611 131.345 76.2824 130.885L76.9145 130.253C77.1826 129.985 77.4507 129.851 77.7188 129.851C78.1785 129.851 78.4083 130.119 78.4083 130.655C78.4083 130.847 78.3892 131 78.3509 131.115C77.355 133.528 75.5164 135.462 72.8351 136.918C70.1538 138.412 67.7598 139.159 65.6531 139.159C61.5546 139.159 59.5053 137.55 59.5053 134.332C59.5053 133.911 60.0033 133.241 60.9992 132.322C61.9951 131.402 62.7228 130.828 63.1825 130.598C63.4889 130.368 63.7187 130.253 63.872 130.253C64.0635 130.253 64.2167 130.33 64.3316 130.483C64.4465 130.636 64.5806 130.828 64.7338 131.058C64.887 131.287 65.0211 131.479 65.136 131.632C65.2509 131.785 65.4041 131.996 65.5956 132.264C65.7872 132.532 65.9787 132.762 66.1702 132.954C66.4 133.107 66.649 133.26 66.9171 133.413C67.4151 133.796 67.9322 133.988 68.4684 133.988C69.043 133.988 69.3303 133.662 69.3303 133.011C69.3303 131.402 68.7366 130.023 67.5491 128.874C66.3617 127.687 65.3658 127.093 64.5614 127.093C64.3699 127.093 64.1784 127.208 63.9869 127.438L61.861 129.564C61.5163 129.908 61.2673 130.081 61.1141 130.081C60.5395 130.081 60.2522 129.832 60.2522 129.334C64.3508 124.316 66.7831 121.807 67.5491 121.807C68.6216 121.807 69.8474 122.535 71.2263 123.99C72.6053 125.446 73.2947 126.902 73.2947 128.357C73.2947 129.736 73.1798 130.789 72.95 131.517C72.7585 132.245 72.6627 132.666 72.6627 132.781C72.6627 132.896 72.8159 132.954 73.1224 132.954ZM92.507 132.954C92.8134 132.954 93.3114 132.724 94.0009 132.264C94.6903 131.804 95.2457 131.345 95.6671 130.885L96.2991 130.253C96.5672 129.985 96.8354 129.851 97.1035 129.851C97.5631 129.851 97.793 130.119 97.793 130.655C97.793 130.847 97.7738 131 97.7355 131.115C96.7396 133.528 94.901 135.462 92.2197 136.918C89.5385 138.412 87.1445 139.159 85.0377 139.159C80.9392 139.159 78.89 137.55 78.89 134.332C78.89 133.911 79.3879 133.241 80.3838 132.322C81.3797 131.402 82.1075 130.828 82.5671 130.598C82.8736 130.368 83.1034 130.253 83.2566 130.253C83.4481 130.253 83.6013 130.33 83.7163 130.483C83.8312 130.636 83.9652 130.828 84.1184 131.058C84.2717 131.287 84.4057 131.479 84.5206 131.632C84.6355 131.785 84.7888 131.996 84.9803 132.264C85.1718 132.532 85.3633 132.762 85.5548 132.954C85.7847 133.107 86.0336 133.26 86.3018 133.413C86.7997 133.796 87.3168 133.988 87.8531 133.988C88.4276 133.988 88.7149 133.662 88.7149 133.011C88.7149 131.402 88.1212 130.023 86.9338 128.874C85.7464 127.687 84.7505 127.093 83.9461 127.093C83.7546 127.093 83.563 127.208 83.3715 127.438L81.2456 129.564C80.9009 129.908 80.6519 130.081 80.4987 130.081C79.9242 130.081 79.6369 129.832 79.6369 129.334C83.7354 124.316 86.1677 121.807 86.9338 121.807C88.0063 121.807 89.232 122.535 90.611 123.99C91.9899 125.446 92.6794 126.902 92.6794 128.357C92.6794 129.736 92.5645 130.789 92.3346 131.517C92.1431 132.245 92.0474 132.666 92.0474 132.781C92.0474 132.896 92.2006 132.954 92.507 132.954ZM111.892 132.954C112.198 132.954 112.696 132.724 113.386 132.264C114.075 131.804 114.63 131.345 115.052 130.885L115.684 130.253C115.952 129.985 116.22 129.851 116.488 129.851C116.948 129.851 117.178 130.119 117.178 130.655C117.178 130.847 117.158 131 117.12 131.115C116.124 133.528 114.286 135.462 111.604 136.918C108.923 138.412 106.529 139.159 104.422 139.159C100.324 139.159 98.2746 137.55 98.2746 134.332C98.2746 133.911 98.7726 133.241 99.7685 132.322C100.764 131.402 101.492 130.828 101.952 130.598C102.258 130.368 102.488 130.253 102.641 130.253C102.833 130.253 102.986 130.33 103.101 130.483C103.216 130.636 103.35 130.828 103.503 131.058C103.656 131.287 103.79 131.479 103.905 131.632C104.02 131.785 104.173 131.996 104.365 132.264C104.556 132.532 104.748 132.762 104.939 132.954C105.169 133.107 105.418 133.26 105.686 133.413C106.184 133.796 106.701 133.988 107.238 133.988C107.812 133.988 108.1 133.662 108.1 133.011C108.1 131.402 107.506 130.023 106.318 128.874C105.131 127.687 104.135 127.093 103.331 127.093C103.139 127.093 102.948 127.208 102.756 127.438L100.63 129.564C100.286 129.908 100.037 130.081 99.8834 130.081C99.3088 130.081 99.0215 129.832 99.0215 129.334C103.12 124.316 105.552 121.807 106.318 121.807C107.391 121.807 108.617 122.535 109.996 123.99C111.375 125.446 112.064 126.902 112.064 128.357C112.064 129.736 111.949 130.789 111.719 131.517C111.528 132.245 111.432 132.666 111.432 132.781C111.432 132.896 111.585 132.954 111.892 132.954ZM131.276 132.954C131.583 132.954 132.081 132.724 132.77 132.264C133.46 131.804 134.015 131.345 134.436 130.885L135.068 130.253C135.337 129.985 135.605 129.851 135.873 129.851C136.332 129.851 136.562 130.119 136.562 130.655C136.562 130.847 136.543 131 136.505 131.115C135.509 133.528 133.67 135.462 130.989 136.918C128.308 138.412 125.914 139.159 123.807 139.159C119.709 139.159 117.659 137.55 117.659 134.332C117.659 133.911 118.157 133.241 119.153 132.322C120.149 131.402 120.877 130.828 121.336 130.598C121.643 130.368 121.873 130.253 122.026 130.253C122.217 130.253 122.371 130.33 122.486 130.483C122.6 130.636 122.735 130.828 122.888 131.058C123.041 131.287 123.175 131.479 123.29 131.632C123.405 131.785 123.558 131.996 123.75 132.264C123.941 132.532 124.133 132.762 124.324 132.954C124.554 133.107 124.803 133.26 125.071 133.413C125.569 133.796 126.086 133.988 126.622 133.988C127.197 133.988 127.484 133.662 127.484 133.011C127.484 131.402 126.891 130.023 125.703 128.874C124.516 127.687 123.52 127.093 122.715 127.093C122.524 127.093 122.332 127.208 122.141 127.438L120.015 129.564C119.67 129.908 119.421 130.081 119.268 130.081C118.693 130.081 118.406 129.832 118.406 129.334C122.505 124.316 124.937 121.807 125.703 121.807C126.776 121.807 128.001 122.535 129.38 123.99C130.759 125.446 131.449 126.902 131.449 128.357C131.449 129.736 131.334 130.789 131.104 131.517C130.912 132.245 130.817 132.666 130.817 132.781C130.817 132.896 130.97 132.954 131.276 132.954ZM150.661 132.954C150.967 132.954 151.465 132.724 152.155 132.264C152.844 131.804 153.4 131.345 153.821 130.885L154.453 130.253C154.721 129.985 154.989 129.851 155.257 129.851C155.717 129.851 155.947 130.119 155.947 130.655C155.947 130.847 155.928 131 155.889 131.115C154.894 133.528 153.055 135.462 150.374 136.918C147.692 138.412 145.298 139.159 143.192 139.159C139.093 139.159 137.044 137.55 137.044 134.332C137.044 133.911 137.542 133.241 138.538 132.322C139.534 131.402 140.261 130.828 140.721 130.598C141.028 130.368 141.257 130.253 141.411 130.253C141.602 130.253 141.755 130.33 141.87 130.483C141.985 130.636 142.119 130.828 142.272 131.058C142.426 131.287 142.56 131.479 142.675 131.632C142.789 131.785 142.943 131.996 143.134 132.264C143.326 132.532 143.517 132.762 143.709 132.954C143.939 133.107 144.188 133.26 144.456 133.413C144.954 133.796 145.471 133.988 146.007 133.988C146.582 133.988 146.869 133.662 146.869 133.011C146.869 131.402 146.275 130.023 145.088 128.874C143.9 127.687 142.904 127.093 142.1 127.093C141.909 127.093 141.717 127.208 141.525 127.438L139.4 129.564C139.055 129.908 138.806 130.081 138.653 130.081C138.078 130.081 137.791 129.832 137.791 129.334C141.889 124.316 144.322 121.807 145.088 121.807C146.16 121.807 147.386 122.535 148.765 123.99C150.144 125.446 150.833 126.902 150.833 128.357C150.833 129.736 150.718 130.789 150.489 131.517C150.297 132.245 150.201 132.666 150.201 132.781C150.201 132.896 150.355 132.954 150.661 132.954ZM170.046 132.954C170.352 132.954 170.85 132.724 171.539 132.264C172.229 131.804 172.784 131.345 173.206 130.885L173.838 130.253C174.106 129.985 174.374 129.851 174.642 129.851C175.102 129.851 175.332 130.119 175.332 130.655C175.332 130.847 175.312 131 175.274 131.115C174.278 133.528 172.44 135.462 169.758 136.918C167.077 138.412 164.683 139.159 162.576 139.159C158.478 139.159 156.429 137.55 156.429 134.332C156.429 133.911 156.927 133.241 157.922 132.322C158.918 131.402 159.646 130.828 160.106 130.598C160.412 130.368 160.642 130.253 160.795 130.253C160.987 130.253 161.14 130.33 161.255 130.483C161.37 130.636 161.504 130.828 161.657 131.058C161.81 131.287 161.944 131.479 162.059 131.632C162.174 131.785 162.327 131.996 162.519 132.264C162.71 132.532 162.902 132.762 163.093 132.954C163.323 133.107 163.572 133.26 163.84 133.413C164.338 133.796 164.855 133.988 165.392 133.988C165.966 133.988 166.254 133.662 166.254 133.011C166.254 131.402 165.66 130.023 164.472 128.874C163.285 127.687 162.289 127.093 161.485 127.093C161.293 127.093 161.102 127.208 160.91 127.438L158.784 129.564C158.44 129.908 158.191 130.081 158.037 130.081C157.463 130.081 157.175 129.832 157.175 129.334C161.274 124.316 163.706 121.807 164.472 121.807C165.545 121.807 166.771 122.535 168.15 123.99C169.529 125.446 170.218 126.902 170.218 128.357C170.218 129.736 170.103 130.789 169.873 131.517C169.682 132.245 169.586 132.666 169.586 132.781C169.586 132.896 169.739 132.954 170.046 132.954ZM189.43 132.954C189.737 132.954 190.235 132.724 190.924 132.264C191.614 131.804 192.169 131.345 192.59 130.885L193.222 130.253C193.49 129.985 193.759 129.851 194.027 129.851C194.486 129.851 194.716 130.119 194.716 130.655C194.716 130.847 194.697 131 194.659 131.115C193.663 133.528 191.824 135.462 189.143 136.918C186.462 138.412 184.068 139.159 181.961 139.159C177.862 139.159 175.813 137.55 175.813 134.332C175.813 133.911 176.311 133.241 177.307 132.322C178.303 131.402 179.031 130.828 179.49 130.598C179.797 130.368 180.027 130.253 180.18 130.253C180.371 130.253 180.525 130.33 180.64 130.483C180.754 130.636 180.888 130.828 181.042 131.058C181.195 131.287 181.329 131.479 181.444 131.632C181.559 131.785 181.712 131.996 181.904 132.264C182.095 132.532 182.287 132.762 182.478 132.954C182.708 133.107 182.957 133.26 183.225 133.413C183.723 133.796 184.24 133.988 184.776 133.988C185.351 133.988 185.638 133.662 185.638 133.011C185.638 131.402 185.044 130.023 183.857 128.874C182.67 127.687 181.674 127.093 180.869 127.093C180.678 127.093 180.486 127.208 180.295 127.438L178.169 129.564C177.824 129.908 177.575 130.081 177.422 130.081C176.847 130.081 176.56 129.832 176.56 129.334C180.659 124.316 183.091 121.807 183.857 121.807C184.93 121.807 186.155 122.535 187.534 123.99C188.913 125.446 189.603 126.902 189.603 128.357C189.603 129.736 189.488 130.789 189.258 131.517C189.066 132.245 188.971 132.666 188.971 132.781C188.971 132.896 189.124 132.954 189.43 132.954ZM208.815 132.954C209.121 132.954 209.619 132.724 210.309 132.264C210.998 131.804 211.554 131.345 211.975 130.885L212.607 130.253C212.875 129.985 213.143 129.851 213.411 129.851C213.871 129.851 214.101 130.119 214.101 130.655C214.101 130.847 214.082 131 214.043 131.115C213.047 133.528 211.209 135.462 208.528 136.918C205.846 138.412 203.452 139.159 201.346 139.159C197.247 139.159 195.198 137.55 195.198 134.332C195.198 133.911 195.696 133.241 196.692 132.322C197.688 131.402 198.415 130.828 198.875 130.598C199.181 130.368 199.411 130.253 199.565 130.253C199.756 130.253 199.909 130.33 200.024 130.483C200.139 130.636 200.273 130.828 200.426 131.058C200.58 131.287 200.714 131.479 200.829 131.632C200.943 131.785 201.097 131.996 201.288 132.264C201.48 132.532 201.671 132.762 201.863 132.954C202.093 133.107 202.342 133.26 202.61 133.413C203.108 133.796 203.625 133.988 204.161 133.988C204.736 133.988 205.023 133.662 205.023 133.011C205.023 131.402 204.429 130.023 203.242 128.874C202.054 127.687 201.058 127.093 200.254 127.093C200.062 127.093 199.871 127.208 199.679 127.438L197.554 129.564C197.209 129.908 196.96 130.081 196.807 130.081C196.232 130.081 195.945 129.832 195.945 129.334C200.043 124.316 202.476 121.807 203.242 121.807C204.314 121.807 205.54 122.535 206.919 123.99C208.298 125.446 208.987 126.902 208.987 128.357C208.987 129.736 208.872 130.789 208.643 131.517C208.451 132.245 208.355 132.666 208.355 132.781C208.355 132.896 208.508 132.954 208.815 132.954ZM228.2 132.954C228.506 132.954 229.004 132.724 229.693 132.264C230.383 131.804 230.938 131.345 231.36 130.885L231.992 130.253C232.26 129.985 232.528 129.851 232.796 129.851C233.256 129.851 233.486 130.119 233.486 130.655C233.486 130.847 233.466 131 233.428 131.115C232.432 133.528 230.594 135.462 227.912 136.918C225.231 138.412 222.837 139.159 220.73 139.159C216.632 139.159 214.583 137.55 214.583 134.332C214.583 133.911 215.08 133.241 216.076 132.322C217.072 131.402 217.8 130.828 218.26 130.598C218.566 130.368 218.796 130.253 218.949 130.253C219.141 130.253 219.294 130.33 219.409 130.483C219.524 130.636 219.658 130.828 219.811 131.058C219.964 131.287 220.098 131.479 220.213 131.632C220.328 131.785 220.481 131.996 220.673 132.264C220.864 132.532 221.056 132.762 221.247 132.954C221.477 133.107 221.726 133.26 221.994 133.413C222.492 133.796 223.009 133.988 223.546 133.988C224.12 133.988 224.407 133.662 224.407 133.011C224.407 131.402 223.814 130.023 222.626 128.874C221.439 127.687 220.443 127.093 219.639 127.093C219.447 127.093 219.256 127.208 219.064 127.438L216.938 129.564C216.593 129.908 216.344 130.081 216.191 130.081C215.617 130.081 215.329 129.832 215.329 129.334C219.428 124.316 221.86 121.807 222.626 121.807C223.699 121.807 224.925 122.535 226.304 123.99C227.682 125.446 228.372 126.902 228.372 128.357C228.372 129.736 228.257 130.789 228.027 131.517C227.836 132.245 227.74 132.666 227.74 132.781C227.74 132.896 227.893 132.954 228.2 132.954ZM53.7377 174.954C54.0441 174.954 54.5421 174.724 55.2316 174.264C55.921 173.804 56.4764 173.345 56.8978 172.885L57.5298 172.253C57.7979 171.985 58.0661 171.851 58.3342 171.851C58.7938 171.851 59.0237 172.119 59.0237 172.655C59.0237 172.847 59.0045 173 58.9662 173.115C57.9703 175.528 56.1317 177.462 53.4504 178.918C50.7692 180.412 48.3752 181.159 46.2684 181.159C42.1699 181.159 40.1207 179.55 40.1207 176.332C40.1207 175.911 40.6186 175.241 41.6145 174.322C42.6104 173.402 43.3382 172.828 43.7978 172.598C44.1043 172.368 44.3341 172.253 44.4873 172.253C44.6788 172.253 44.832 172.33 44.947 172.483C45.0619 172.636 45.1959 172.828 45.3491 173.058C45.5024 173.287 45.6364 173.479 45.7513 173.632C45.8663 173.785 46.0195 173.996 46.211 174.264C46.4025 174.532 46.594 174.762 46.7855 174.954C47.0154 175.107 47.2643 175.26 47.5325 175.413C48.0304 175.796 48.5475 175.988 49.0838 175.988C49.6583 175.988 49.9456 175.662 49.9456 175.011C49.9456 173.402 49.3519 172.023 48.1645 170.874C46.9771 169.687 45.9812 169.093 45.1768 169.093C44.9853 169.093 44.7937 169.208 44.6022 169.438L42.4763 171.564C42.1316 171.908 41.8826 172.081 41.7294 172.081C41.1549 172.081 40.8676 171.832 40.8676 171.334C44.9661 166.316 47.3984 163.807 48.1645 163.807C49.237 163.807 50.4627 164.535 51.8417 165.99C53.2206 167.446 53.9101 168.902 53.9101 170.357C53.9101 171.736 53.7952 172.789 53.5653 173.517C53.3738 174.245 53.2781 174.666 53.2781 174.781C53.2781 174.896 53.4313 174.954 53.7377 174.954ZM73.1224 174.954C73.4288 174.954 73.9267 174.724 74.6162 174.264C75.3057 173.804 75.8611 173.345 76.2824 172.885L76.9145 172.253C77.1826 171.985 77.4507 171.851 77.7188 171.851C78.1785 171.851 78.4083 172.119 78.4083 172.655C78.4083 172.847 78.3892 173 78.3509 173.115C77.355 175.528 75.5164 177.462 72.8351 178.918C70.1538 180.412 67.7598 181.159 65.6531 181.159C61.5546 181.159 59.5053 179.55 59.5053 176.332C59.5053 175.911 60.0033 175.241 60.9992 174.322C61.9951 173.402 62.7228 172.828 63.1825 172.598C63.4889 172.368 63.7187 172.253 63.872 172.253C64.0635 172.253 64.2167 172.33 64.3316 172.483C64.4465 172.636 64.5806 172.828 64.7338 173.058C64.887 173.287 65.0211 173.479 65.136 173.632C65.2509 173.785 65.4041 173.996 65.5956 174.264C65.7872 174.532 65.9787 174.762 66.1702 174.954C66.4 175.107 66.649 175.26 66.9171 175.413C67.4151 175.796 67.9322 175.988 68.4684 175.988C69.043 175.988 69.3303 175.662 69.3303 175.011C69.3303 173.402 68.7366 172.023 67.5491 170.874C66.3617 169.687 65.3658 169.093 64.5614 169.093C64.3699 169.093 64.1784 169.208 63.9869 169.438L61.861 171.564C61.5163 171.908 61.2673 172.081 61.1141 172.081C60.5395 172.081 60.2522 171.832 60.2522 171.334C64.3508 166.316 66.7831 163.807 67.5491 163.807C68.6216 163.807 69.8474 164.535 71.2263 165.99C72.6053 167.446 73.2947 168.902 73.2947 170.357C73.2947 171.736 73.1798 172.789 72.95 173.517C72.7585 174.245 72.6627 174.666 72.6627 174.781C72.6627 174.896 72.8159 174.954 73.1224 174.954ZM92.507 174.954C92.8134 174.954 93.3114 174.724 94.0009 174.264C94.6903 173.804 95.2457 173.345 95.6671 172.885L96.2991 172.253C96.5672 171.985 96.8354 171.851 97.1035 171.851C97.5631 171.851 97.793 172.119 97.793 172.655C97.793 172.847 97.7738 173 97.7355 173.115C96.7396 175.528 94.901 177.462 92.2197 178.918C89.5385 180.412 87.1445 181.159 85.0377 181.159C80.9392 181.159 78.89 179.55 78.89 176.332C78.89 175.911 79.3879 175.241 80.3838 174.322C81.3797 173.402 82.1075 172.828 82.5671 172.598C82.8736 172.368 83.1034 172.253 83.2566 172.253C83.4481 172.253 83.6013 172.33 83.7163 172.483C83.8312 172.636 83.9652 172.828 84.1184 173.058C84.2717 173.287 84.4057 173.479 84.5206 173.632C84.6355 173.785 84.7888 173.996 84.9803 174.264C85.1718 174.532 85.3633 174.762 85.5548 174.954C85.7847 175.107 86.0336 175.26 86.3018 175.413C86.7997 175.796 87.3168 175.988 87.8531 175.988C88.4276 175.988 88.7149 175.662 88.7149 175.011C88.7149 173.402 88.1212 172.023 86.9338 170.874C85.7464 169.687 84.7505 169.093 83.9461 169.093C83.7546 169.093 83.563 169.208 83.3715 169.438L81.2456 171.564C80.9009 171.908 80.6519 172.081 80.4987 172.081C79.9242 172.081 79.6369 171.832 79.6369 171.334C83.7354 166.316 86.1677 163.807 86.9338 163.807C88.0063 163.807 89.232 164.535 90.611 165.99C91.9899 167.446 92.6794 168.902 92.6794 170.357C92.6794 171.736 92.5645 172.789 92.3346 173.517C92.1431 174.245 92.0474 174.666 92.0474 174.781C92.0474 174.896 92.2006 174.954 92.507 174.954ZM111.892 174.954C112.198 174.954 112.696 174.724 113.386 174.264C114.075 173.804 114.63 173.345 115.052 172.885L115.684 172.253C115.952 171.985 116.22 171.851 116.488 171.851C116.948 171.851 117.178 172.119 117.178 172.655C117.178 172.847 117.158 173 117.12 173.115C116.124 175.528 114.286 177.462 111.604 178.918C108.923 180.412 106.529 181.159 104.422 181.159C100.324 181.159 98.2746 179.55 98.2746 176.332C98.2746 175.911 98.7726 175.241 99.7685 174.322C100.764 173.402 101.492 172.828 101.952 172.598C102.258 172.368 102.488 172.253 102.641 172.253C102.833 172.253 102.986 172.33 103.101 172.483C103.216 172.636 103.35 172.828 103.503 173.058C103.656 173.287 103.79 173.479 103.905 173.632C104.02 173.785 104.173 173.996 104.365 174.264C104.556 174.532 104.748 174.762 104.939 174.954C105.169 175.107 105.418 175.26 105.686 175.413C106.184 175.796 106.701 175.988 107.238 175.988C107.812 175.988 108.1 175.662 108.1 175.011C108.1 173.402 107.506 172.023 106.318 170.874C105.131 169.687 104.135 169.093 103.331 169.093C103.139 169.093 102.948 169.208 102.756 169.438L100.63 171.564C100.286 171.908 100.037 172.081 99.8834 172.081C99.3088 172.081 99.0215 171.832 99.0215 171.334C103.12 166.316 105.552 163.807 106.318 163.807C107.391 163.807 108.617 164.535 109.996 165.99C111.375 167.446 112.064 168.902 112.064 170.357C112.064 171.736 111.949 172.789 111.719 173.517C111.528 174.245 111.432 174.666 111.432 174.781C111.432 174.896 111.585 174.954 111.892 174.954ZM131.276 174.954C131.583 174.954 132.081 174.724 132.77 174.264C133.46 173.804 134.015 173.345 134.436 172.885L135.068 172.253C135.337 171.985 135.605 171.851 135.873 171.851C136.332 171.851 136.562 172.119 136.562 172.655C136.562 172.847 136.543 173 136.505 173.115C135.509 175.528 133.67 177.462 130.989 178.918C128.308 180.412 125.914 181.159 123.807 181.159C119.709 181.159 117.659 179.55 117.659 176.332C117.659 175.911 118.157 175.241 119.153 174.322C120.149 173.402 120.877 172.828 121.336 172.598C121.643 172.368 121.873 172.253 122.026 172.253C122.217 172.253 122.371 172.33 122.486 172.483C122.6 172.636 122.735 172.828 122.888 173.058C123.041 173.287 123.175 173.479 123.29 173.632C123.405 173.785 123.558 173.996 123.75 174.264C123.941 174.532 124.133 174.762 124.324 174.954C124.554 175.107 124.803 175.26 125.071 175.413C125.569 175.796 126.086 175.988 126.622 175.988C127.197 175.988 127.484 175.662 127.484 175.011C127.484 173.402 126.891 172.023 125.703 170.874C124.516 169.687 123.52 169.093 122.715 169.093C122.524 169.093 122.332 169.208 122.141 169.438L120.015 171.564C119.67 171.908 119.421 172.081 119.268 172.081C118.693 172.081 118.406 171.832 118.406 171.334C122.505 166.316 124.937 163.807 125.703 163.807C126.776 163.807 128.001 164.535 129.38 165.99C130.759 167.446 131.449 168.902 131.449 170.357C131.449 171.736 131.334 172.789 131.104 173.517C130.912 174.245 130.817 174.666 130.817 174.781C130.817 174.896 130.97 174.954 131.276 174.954ZM150.661 174.954C150.967 174.954 151.465 174.724 152.155 174.264C152.844 173.804 153.4 173.345 153.821 172.885L154.453 172.253C154.721 171.985 154.989 171.851 155.257 171.851C155.717 171.851 155.947 172.119 155.947 172.655C155.947 172.847 155.928 173 155.889 173.115C154.894 175.528 153.055 177.462 150.374 178.918C147.692 180.412 145.298 181.159 143.192 181.159C139.093 181.159 137.044 179.55 137.044 176.332C137.044 175.911 137.542 175.241 138.538 174.322C139.534 173.402 140.261 172.828 140.721 172.598C141.028 172.368 141.257 172.253 141.411 172.253C141.602 172.253 141.755 172.33 141.87 172.483C141.985 172.636 142.119 172.828 142.272 173.058C142.426 173.287 142.56 173.479 142.675 173.632C142.789 173.785 142.943 173.996 143.134 174.264C143.326 174.532 143.517 174.762 143.709 174.954C143.939 175.107 144.188 175.26 144.456 175.413C144.954 175.796 145.471 175.988 146.007 175.988C146.582 175.988 146.869 175.662 146.869 175.011C146.869 173.402 146.275 172.023 145.088 170.874C143.9 169.687 142.904 169.093 142.1 169.093C141.909 169.093 141.717 169.208 141.525 169.438L139.4 171.564C139.055 171.908 138.806 172.081 138.653 172.081C138.078 172.081 137.791 171.832 137.791 171.334C141.889 166.316 144.322 163.807 145.088 163.807C146.16 163.807 147.386 164.535 148.765 165.99C150.144 167.446 150.833 168.902 150.833 170.357C150.833 171.736 150.718 172.789 150.489 173.517C150.297 174.245 150.201 174.666 150.201 174.781C150.201 174.896 150.355 174.954 150.661 174.954ZM170.046 174.954C170.352 174.954 170.85 174.724 171.539 174.264C172.229 173.804 172.784 173.345 173.206 172.885L173.838 172.253C174.106 171.985 174.374 171.851 174.642 171.851C175.102 171.851 175.332 172.119 175.332 172.655C175.332 172.847 175.312 173 175.274 173.115C174.278 175.528 172.44 177.462 169.758 178.918C167.077 180.412 164.683 181.159 162.576 181.159C158.478 181.159 156.429 179.55 156.429 176.332C156.429 175.911 156.927 175.241 157.922 174.322C158.918 173.402 159.646 172.828 160.106 172.598C160.412 172.368 160.642 172.253 160.795 172.253C160.987 172.253 161.14 172.33 161.255 172.483C161.37 172.636 161.504 172.828 161.657 173.058C161.81 173.287 161.944 173.479 162.059 173.632C162.174 173.785 162.327 173.996 162.519 174.264C162.71 174.532 162.902 174.762 163.093 174.954C163.323 175.107 163.572 175.26 163.84 175.413C164.338 175.796 164.855 175.988 165.392 175.988C165.966 175.988 166.254 175.662 166.254 175.011C166.254 173.402 165.66 172.023 164.472 170.874C163.285 169.687 162.289 169.093 161.485 169.093C161.293 169.093 161.102 169.208 160.91 169.438L158.784 171.564C158.44 171.908 158.191 172.081 158.037 172.081C157.463 172.081 157.175 171.832 157.175 171.334C161.274 166.316 163.706 163.807 164.472 163.807C165.545 163.807 166.771 164.535 168.15 165.99C169.529 167.446 170.218 168.902 170.218 170.357C170.218 171.736 170.103 172.789 169.873 173.517C169.682 174.245 169.586 174.666 169.586 174.781C169.586 174.896 169.739 174.954 170.046 174.954ZM189.43 174.954C189.737 174.954 190.235 174.724 190.924 174.264C191.614 173.804 192.169 173.345 192.59 172.885L193.222 172.253C193.49 171.985 193.759 171.851 194.027 171.851C194.486 171.851 194.716 172.119 194.716 172.655C194.716 172.847 194.697 173 194.659 173.115C193.663 175.528 191.824 177.462 189.143 178.918C186.462 180.412 184.068 181.159 181.961 181.159C177.862 181.159 175.813 179.55 175.813 176.332C175.813 175.911 176.311 175.241 177.307 174.322C178.303 173.402 179.031 172.828 179.49 172.598C179.797 172.368 180.027 172.253 180.18 172.253C180.371 172.253 180.525 172.33 180.64 172.483C180.754 172.636 180.888 172.828 181.042 173.058C181.195 173.287 181.329 173.479 181.444 173.632C181.559 173.785 181.712 173.996 181.904 174.264C182.095 174.532 182.287 174.762 182.478 174.954C182.708 175.107 182.957 175.26 183.225 175.413C183.723 175.796 184.24 175.988 184.776 175.988C185.351 175.988 185.638 175.662 185.638 175.011C185.638 173.402 185.044 172.023 183.857 170.874C182.67 169.687 181.674 169.093 180.869 169.093C180.678 169.093 180.486 169.208 180.295 169.438L178.169 171.564C177.824 171.908 177.575 172.081 177.422 172.081C176.847 172.081 176.56 171.832 176.56 171.334C180.659 166.316 183.091 163.807 183.857 163.807C184.93 163.807 186.155 164.535 187.534 165.99C188.913 167.446 189.603 168.902 189.603 170.357C189.603 171.736 189.488 172.789 189.258 173.517C189.066 174.245 188.971 174.666 188.971 174.781C188.971 174.896 189.124 174.954 189.43 174.954ZM208.815 174.954C209.121 174.954 209.619 174.724 210.309 174.264C210.998 173.804 211.554 173.345 211.975 172.885L212.607 172.253C212.875 171.985 213.143 171.851 213.411 171.851C213.871 171.851 214.101 172.119 214.101 172.655C214.101 172.847 214.082 173 214.043 173.115C213.047 175.528 211.209 177.462 208.528 178.918C205.846 180.412 203.452 181.159 201.346 181.159C197.247 181.159 195.198 179.55 195.198 176.332C195.198 175.911 195.696 175.241 196.692 174.322C197.688 173.402 198.415 172.828 198.875 172.598C199.181 172.368 199.411 172.253 199.565 172.253C199.756 172.253 199.909 172.33 200.024 172.483C200.139 172.636 200.273 172.828 200.426 173.058C200.58 173.287 200.714 173.479 200.829 173.632C200.943 173.785 201.097 173.996 201.288 174.264C201.48 174.532 201.671 174.762 201.863 174.954C202.093 175.107 202.342 175.26 202.61 175.413C203.108 175.796 203.625 175.988 204.161 175.988C204.736 175.988 205.023 175.662 205.023 175.011C205.023 173.402 204.429 172.023 203.242 170.874C202.054 169.687 201.058 169.093 200.254 169.093C200.062 169.093 199.871 169.208 199.679 169.438L197.554 171.564C197.209 171.908 196.96 172.081 196.807 172.081C196.232 172.081 195.945 171.832 195.945 171.334C200.043 166.316 202.476 163.807 203.242 163.807C204.314 163.807 205.54 164.535 206.919 165.99C208.298 167.446 208.987 168.902 208.987 170.357C208.987 171.736 208.872 172.789 208.643 173.517C208.451 174.245 208.355 174.666 208.355 174.781C208.355 174.896 208.508 174.954 208.815 174.954ZM228.2 174.954C228.506 174.954 229.004 174.724 229.693 174.264C230.383 173.804 230.938 173.345 231.36 172.885L231.992 172.253C232.26 171.985 232.528 171.851 232.796 171.851C233.256 171.851 233.486 172.119 233.486 172.655C233.486 172.847 233.466 173 233.428 173.115C232.432 175.528 230.594 177.462 227.912 178.918C225.231 180.412 222.837 181.159 220.73 181.159C216.632 181.159 214.583 179.55 214.583 176.332C214.583 175.911 215.08 175.241 216.076 174.322C217.072 173.402 217.8 172.828 218.26 172.598C218.566 172.368 218.796 172.253 218.949 172.253C219.141 172.253 219.294 172.33 219.409 172.483C219.524 172.636 219.658 172.828 219.811 173.058C219.964 173.287 220.098 173.479 220.213 173.632C220.328 173.785 220.481 173.996 220.673 174.264C220.864 174.532 221.056 174.762 221.247 174.954C221.477 175.107 221.726 175.26 221.994 175.413C222.492 175.796 223.009 175.988 223.546 175.988C224.12 175.988 224.407 175.662 224.407 175.011C224.407 173.402 223.814 172.023 222.626 170.874C221.439 169.687 220.443 169.093 219.639 169.093C219.447 169.093 219.256 169.208 219.064 169.438L216.938 171.564C216.593 171.908 216.344 172.081 216.191 172.081C215.617 172.081 215.329 171.832 215.329 171.334C219.428 166.316 221.86 163.807 222.626 163.807C223.699 163.807 224.925 164.535 226.304 165.99C227.682 167.446 228.372 168.902 228.372 170.357C228.372 171.736 228.257 172.789 228.027 173.517C227.836 174.245 227.74 174.666 227.74 174.781C227.74 174.896 227.893 174.954 228.2 174.954ZM53.7377 217.954C54.0441 217.954 54.5421 217.724 55.2316 217.264C55.921 216.804 56.4764 216.345 56.8978 215.885L57.5298 215.253C57.7979 214.985 58.0661 214.851 58.3342 214.851C58.7938 214.851 59.0237 215.119 59.0237 215.655C59.0237 215.847 59.0045 216 58.9662 216.115C57.9703 218.528 56.1317 220.462 53.4504 221.918C50.7692 223.412 48.3752 224.159 46.2684 224.159C42.1699 224.159 40.1207 222.55 40.1207 219.332C40.1207 218.911 40.6186 218.241 41.6145 217.322C42.6104 216.402 43.3382 215.828 43.7978 215.598C44.1043 215.368 44.3341 215.253 44.4873 215.253C44.6788 215.253 44.832 215.33 44.947 215.483C45.0619 215.636 45.1959 215.828 45.3491 216.058C45.5024 216.287 45.6364 216.479 45.7513 216.632C45.8663 216.785 46.0195 216.996 46.211 217.264C46.4025 217.532 46.594 217.762 46.7855 217.954C47.0154 218.107 47.2643 218.26 47.5325 218.413C48.0304 218.796 48.5475 218.988 49.0838 218.988C49.6583 218.988 49.9456 218.662 49.9456 218.011C49.9456 216.402 49.3519 215.023 48.1645 213.874C46.9771 212.687 45.9812 212.093 45.1768 212.093C44.9853 212.093 44.7937 212.208 44.6022 212.438L42.4763 214.564C42.1316 214.908 41.8826 215.081 41.7294 215.081C41.1549 215.081 40.8676 214.832 40.8676 214.334C44.9661 209.316 47.3984 206.807 48.1645 206.807C49.237 206.807 50.4627 207.535 51.8417 208.99C53.2206 210.446 53.9101 211.902 53.9101 213.357C53.9101 214.736 53.7952 215.789 53.5653 216.517C53.3738 217.245 53.2781 217.666 53.2781 217.781C53.2781 217.896 53.4313 217.954 53.7377 217.954ZM72.5478 217.954C72.8542 217.954 73.3522 217.724 74.0417 217.264C74.7311 216.804 75.2865 216.345 75.7079 215.885L76.3399 215.253C76.608 214.985 76.8762 214.851 77.1443 214.851C77.6039 214.851 77.8338 215.119 77.8338 215.655C77.8338 215.847 77.8146 216 77.7763 216.115C76.7804 218.528 74.9418 220.462 72.2605 221.918C69.5792 223.412 67.1853 224.159 65.0785 224.159C60.98 224.159 58.9307 222.55 58.9307 219.332C58.9307 218.911 59.4287 218.241 60.4246 217.322C61.4205 216.402 62.1483 215.828 62.6079 215.598C62.9144 215.368 63.1442 215.253 63.2974 215.253C63.4889 215.253 63.6421 215.33 63.757 215.483C63.872 215.636 64.006 215.828 64.1592 216.058C64.3125 216.287 64.4465 216.479 64.5614 216.632C64.6763 216.785 64.8296 216.996 65.0211 217.264C65.2126 217.532 65.4041 217.762 65.5956 217.954C65.8255 218.107 66.0744 218.26 66.3426 218.413C66.8405 218.796 67.3576 218.988 67.8939 218.988C68.4684 218.988 68.7557 218.662 68.7557 218.011C68.7557 216.402 68.162 215.023 66.9746 213.874C65.7872 212.687 64.7913 212.093 63.9869 212.093C63.7954 212.093 63.6038 212.208 63.4123 212.438L61.2864 214.564C60.9417 214.908 60.6927 215.081 60.5395 215.081C59.965 215.081 59.6777 214.832 59.6777 214.334C63.7762 209.316 66.2085 206.807 66.9746 206.807C68.0471 206.807 69.2728 207.535 70.6518 208.99C72.0307 210.446 72.7202 211.902 72.7202 213.357C72.7202 214.736 72.6053 215.789 72.3754 216.517C72.1839 217.245 72.0882 217.666 72.0882 217.781C72.0882 217.896 72.2414 217.954 72.5478 217.954ZM91.3579 217.954C91.6643 217.954 92.1623 217.724 92.8518 217.264C93.5412 216.804 94.0966 216.345 94.518 215.885L95.15 215.253C95.4181 214.985 95.6862 214.851 95.9544 214.851C96.414 214.851 96.6438 215.119 96.6438 215.655C96.6438 215.847 96.6247 216 96.5864 216.115C95.5905 218.528 93.7519 220.462 91.0706 221.918C88.3893 223.412 85.9953 224.159 83.8886 224.159C79.7901 224.159 77.7408 222.55 77.7408 219.332C77.7408 218.911 78.2388 218.241 79.2347 217.322C80.2306 216.402 80.9584 215.828 81.418 215.598C81.7245 215.368 81.9543 215.253 82.1075 215.253C82.299 215.253 82.4522 215.33 82.5671 215.483C82.682 215.636 82.8161 215.828 82.9693 216.058C83.1225 216.287 83.2566 216.479 83.3715 216.632C83.4864 216.785 83.6396 216.996 83.8312 217.264C84.0227 217.532 84.2142 217.762 84.4057 217.954C84.6356 218.107 84.8845 218.26 85.1527 218.413C85.6506 218.796 86.1677 218.988 86.704 218.988C87.2785 218.988 87.5658 218.662 87.5658 218.011C87.5658 216.402 86.9721 215.023 85.7847 213.874C84.5972 212.687 83.6013 212.093 82.797 212.093C82.6054 212.093 82.4139 212.208 82.2224 212.438L80.0965 214.564C79.7518 214.908 79.5028 215.081 79.3496 215.081C78.775 215.081 78.4878 214.832 78.4878 214.334C82.5863 209.316 85.0186 206.807 85.7847 206.807C86.8572 206.807 88.0829 207.535 89.4619 208.99C90.8408 210.446 91.5303 211.902 91.5303 213.357C91.5303 214.736 91.4154 215.789 91.1855 216.517C90.994 217.245 90.8983 217.666 90.8983 217.781C90.8983 217.896 91.0515 217.954 91.3579 217.954ZM110.168 217.954C110.474 217.954 110.972 217.724 111.662 217.264C112.351 216.804 112.907 216.345 113.328 215.885L113.96 215.253C114.228 214.985 114.496 214.851 114.764 214.851C115.224 214.851 115.454 215.119 115.454 215.655C115.454 215.847 115.435 216 115.396 216.115C114.401 218.528 112.562 220.462 109.881 221.918C107.199 223.412 104.805 224.159 102.699 224.159C98.6002 224.159 96.5509 222.55 96.5509 219.332C96.5509 218.911 97.0489 218.241 98.0448 217.322C99.0407 216.402 99.7685 215.828 100.228 215.598C100.535 215.368 100.764 215.253 100.918 215.253C101.109 215.253 101.262 215.33 101.377 215.483C101.492 215.636 101.626 215.828 101.779 216.058C101.933 216.287 102.067 216.479 102.182 216.632C102.297 216.785 102.45 216.996 102.641 217.264C102.833 217.532 103.024 217.762 103.216 217.954C103.446 218.107 103.695 218.26 103.963 218.413C104.461 218.796 104.978 218.988 105.514 218.988C106.089 218.988 106.376 218.662 106.376 218.011C106.376 216.402 105.782 215.023 104.595 213.874C103.407 212.687 102.411 212.093 101.607 212.093C101.416 212.093 101.224 212.208 101.032 212.438L98.9066 214.564C98.5619 214.908 98.3129 215.081 98.1597 215.081C97.5851 215.081 97.2979 214.832 97.2979 214.334C101.396 209.316 103.829 206.807 104.595 206.807C105.667 206.807 106.893 207.535 108.272 208.99C109.651 210.446 110.34 211.902 110.34 213.357C110.34 214.736 110.225 215.789 109.996 216.517C109.804 217.245 109.708 217.666 109.708 217.781C109.708 217.896 109.862 217.954 110.168 217.954ZM128.978 217.954C129.285 217.954 129.782 217.724 130.472 217.264C131.161 216.804 131.717 216.345 132.138 215.885L132.77 215.253C133.038 214.985 133.306 214.851 133.575 214.851C134.034 214.851 134.264 215.119 134.264 215.655C134.264 215.847 134.245 216 134.207 216.115C133.211 218.528 131.372 220.462 128.691 221.918C126.01 223.412 123.616 224.159 121.509 224.159C117.41 224.159 115.361 222.55 115.361 219.332C115.361 218.911 115.859 218.241 116.855 217.322C117.851 216.402 118.579 215.828 119.038 215.598C119.345 215.368 119.574 215.253 119.728 215.253C119.919 215.253 120.072 215.33 120.187 215.483C120.302 215.636 120.436 215.828 120.59 216.058C120.743 216.287 120.877 216.479 120.992 216.632C121.107 216.785 121.26 216.996 121.451 217.264C121.643 217.532 121.834 217.762 122.026 217.954C122.256 218.107 122.505 218.26 122.773 218.413C123.271 218.796 123.788 218.988 124.324 218.988C124.899 218.988 125.186 218.662 125.186 218.011C125.186 216.402 124.592 215.023 123.405 213.874C122.217 212.687 121.222 212.093 120.417 212.093C120.226 212.093 120.034 212.208 119.843 212.438L117.717 214.564C117.372 214.908 117.123 215.081 116.97 215.081C116.395 215.081 116.108 214.832 116.108 214.334C120.206 209.316 122.639 206.807 123.405 206.807C124.477 206.807 125.703 207.535 127.082 208.99C128.461 210.446 129.15 211.902 129.15 213.357C129.15 214.736 129.036 215.789 128.806 216.517C128.614 217.245 128.518 217.666 128.518 217.781C128.518 217.896 128.672 217.954 128.978 217.954ZM147.788 217.954C148.095 217.954 148.593 217.724 149.282 217.264C149.971 216.804 150.527 216.345 150.948 215.885L151.58 215.253C151.848 214.985 152.117 214.851 152.385 214.851C152.844 214.851 153.074 215.119 153.074 215.655C153.074 215.847 153.055 216 153.017 216.115C152.021 218.528 150.182 220.462 147.501 221.918C144.82 223.412 142.426 224.159 140.319 224.159C136.22 224.159 134.171 222.55 134.171 219.332C134.171 218.911 134.669 218.241 135.665 217.322C136.661 216.402 137.389 215.828 137.848 215.598C138.155 215.368 138.385 215.253 138.538 215.253C138.729 215.253 138.882 215.33 138.997 215.483C139.112 215.636 139.246 215.828 139.4 216.058C139.553 216.287 139.687 216.479 139.802 216.632C139.917 216.785 140.07 216.996 140.261 217.264C140.453 217.532 140.644 217.762 140.836 217.954C141.066 218.107 141.315 218.26 141.583 218.413C142.081 218.796 142.598 218.988 143.134 218.988C143.709 218.988 143.996 218.662 143.996 218.011C143.996 216.402 143.402 215.023 142.215 213.874C141.028 212.687 140.032 212.093 139.227 212.093C139.036 212.093 138.844 212.208 138.653 212.438L136.527 214.564C136.182 214.908 135.933 215.081 135.78 215.081C135.205 215.081 134.918 214.832 134.918 214.334C139.017 209.316 141.449 206.807 142.215 206.807C143.287 206.807 144.513 207.535 145.892 208.99C147.271 210.446 147.961 211.902 147.961 213.357C147.961 214.736 147.846 215.789 147.616 216.517C147.424 217.245 147.329 217.666 147.329 217.781C147.329 217.896 147.482 217.954 147.788 217.954Z" fill="#F5F5F1"/>
<path d="M160.467 213.09C161.004 212.401 161.521 211.501 162.019 210.39C162.44 209.662 162.976 209.298 163.627 209.298C164.317 209.298 164.853 209.681 165.236 210.447C165.619 211.214 165.887 212.056 166.041 212.976C166.232 213.857 166.596 214.68 167.132 215.446C167.668 216.212 168.435 216.595 169.43 216.595C170.465 216.595 170.982 216.116 170.982 215.159C170.292 214.699 169.545 214.029 168.741 213.148C167.937 212.267 167.534 211.443 167.534 210.677C167.534 209.911 167.994 208.858 168.913 207.517C169.871 206.138 170.58 205.449 171.039 205.449C171.346 205.449 171.595 205.679 171.786 206.138C171.978 206.56 172.073 206.904 172.073 207.173C172.073 207.939 172.533 208.686 173.452 209.413C174.372 210.141 175.54 210.505 176.957 210.505C177.187 210.16 177.436 209.988 177.704 209.988C178.087 210.064 178.279 210.428 178.279 211.08C178.279 211.692 177.742 212.458 176.67 213.378C175.597 214.259 174.391 214.91 173.05 215.331C172.82 215.484 172.686 215.638 172.648 215.791C172.61 215.906 172.456 216.48 172.188 217.515C171.92 218.549 171.69 219.296 171.499 219.755C171.307 220.177 171.001 220.77 170.58 221.536C169.813 222.954 168.549 223.662 166.787 223.662C165.715 223.662 164.834 223.356 164.144 222.743C163.455 222.13 162.957 221.326 162.651 220.33C162.229 218.836 162.019 217.361 162.019 215.906C162.019 215.331 161.846 215.025 161.502 214.987C160.621 214.91 160.18 214.565 160.18 213.952C160.18 213.684 160.276 213.397 160.467 213.09ZM177.326 203.84C176.751 203.189 176.464 202.385 176.464 201.427C176.464 200.469 176.751 199.665 177.326 199.014C177.939 198.363 178.685 198.037 179.566 198.037C180.447 198.037 181.175 198.363 181.75 199.014C182.363 199.665 182.669 200.469 182.669 201.427C182.669 202.385 182.363 203.189 181.75 203.84C181.175 204.491 180.447 204.817 179.566 204.817C178.685 204.817 177.939 204.491 177.326 203.84ZM189.277 216.365C189.66 216.059 190.004 215.906 190.311 215.906C190.847 215.906 191.115 216.251 191.115 216.94C191.115 217.898 189.928 219.334 187.553 221.249C185.178 223.126 183.129 224.065 181.405 224.065C179.681 224.065 178.341 223.452 177.383 222.226C176.426 221 175.947 219.43 175.947 217.515C175.947 215.561 176.272 213.684 176.923 211.884C177.575 210.084 178.226 209.183 178.877 209.183C179.183 209.222 179.337 209.701 179.337 210.62C179.337 211.501 179.471 212.478 179.739 213.55C180.007 214.623 180.582 215.657 181.463 216.653C182.382 217.61 183.55 218.089 184.967 218.089C186.423 218.089 187.859 217.515 189.277 216.365ZM194.067 215.101C194.718 214.872 195.369 214.144 196.02 212.918C196.71 211.654 197.055 210.62 197.055 209.815C197.055 209.011 196.748 208.59 196.135 208.551C195.216 208.551 194.565 208.973 194.182 209.815C193.799 210.62 193.607 211.52 193.607 212.516C193.607 213.474 193.76 214.335 194.067 215.101ZM199.008 218.836C200.081 218.836 200.962 218.606 201.651 218.147C202.379 217.649 203.049 217.017 203.662 216.251C204.313 215.484 204.811 215.101 205.156 215.101C205.539 215.101 205.73 215.274 205.73 215.619C205.73 215.848 205.654 216.116 205.501 216.423C204.237 218.453 202.666 220.234 200.789 221.766C198.912 223.337 196.921 224.122 194.814 224.122C192.707 224.122 191.175 223.605 190.217 222.571C189.298 221.575 188.838 220.234 188.838 218.549C188.838 215.638 189.93 212.669 192.113 209.643C194.297 206.579 196.557 205.047 198.893 205.047C200.119 205.047 200.732 205.545 200.732 206.54C200.732 207.881 200.31 209.279 199.468 210.735C198.625 212.152 197.074 214.086 194.814 216.538C195.848 218.07 197.246 218.836 199.008 218.836ZM218.096 212.401L217.923 214.01C217.923 214.814 218.172 215.542 218.67 216.193C219.206 216.844 219.934 217.17 220.853 217.17C221.811 217.17 222.558 216.959 223.094 216.538C223.669 216.116 223.956 215.676 223.956 215.216C223.956 215.14 223.822 214.929 223.554 214.584C222.635 213.588 222.175 212.42 222.175 211.08C222.175 209.739 222.577 208.417 223.382 207.115C224.224 205.813 225.048 205.162 225.852 205.162C226.657 205.162 227.269 206.043 227.691 207.805C227.844 208.456 228.15 209.069 228.61 209.643C229.108 210.179 229.759 210.447 230.564 210.447C230.64 210.447 230.851 210.371 231.196 210.218C231.54 210.026 231.808 209.93 232 209.93C232.345 209.93 232.517 210.218 232.517 210.792C232.517 212.286 231.751 213.588 230.219 214.699C228.687 215.772 227.289 216.308 226.025 216.308C225.756 216.308 225.565 216.289 225.45 216.251C224.799 217.553 223.975 218.836 222.979 220.1C221.983 221.364 221.217 222.245 220.681 222.743C219.379 223.93 218.134 224.524 216.946 224.524C214.84 224.524 213.786 222.973 213.786 219.87C213.71 219.679 213.595 219.583 213.442 219.583C213.288 219.583 213.174 219.64 213.097 219.755C211.182 222.322 209.056 223.605 206.719 223.605C204.421 223.605 203.272 221.9 203.272 218.491C203.272 216.385 203.732 214.125 204.651 211.712C205.609 209.298 206.604 208.092 207.639 208.092C208.098 208.092 208.328 208.437 208.328 209.126L208.098 211.367C208.098 212.669 208.366 213.742 208.903 214.584C209.745 215.887 210.665 216.538 211.661 216.538C212.695 216.538 213.557 216.308 214.246 215.848C214.936 215.35 215.414 214.814 215.682 214.24C216.41 212.669 217.1 211.884 217.751 211.884C217.981 211.922 218.096 212.095 218.096 212.401Z" fill="#F5F5F1"/>
</svg>
