<svg width="120" height="120" viewBox="0 0 120 120" fill="none" xmlns="http://www.w3.org/2000/svg">
<path d="M89.5012 111.089C80.3994 116.457 70.4419 119.14 59.6286 119.14C48.8153 119.14 38.8578 116.457 29.756 111.089C20.6542 105.799 13.4194 98.603 8.05164 89.5012C2.6839 80.3994 3.54244e-05 70.4418 3.54244e-05 59.6285C3.54244e-05 48.8153 2.6839 38.8577 8.05164 29.7559C13.4194 20.6541 20.6542 13.4193 29.756 8.0516C38.8578 2.68387 48.8153 -3.21093e-06 59.6286 -3.21093e-06C70.4419 -3.21093e-06 80.3994 2.68387 89.5012 8.0516C98.603 13.4193 105.799 20.6541 111.089 29.7559C116.457 38.8577 119.14 48.8153 119.14 59.6285C119.14 70.4418 116.457 80.3994 111.089 89.5012C105.799 98.603 98.603 105.799 89.5012 111.089ZM34.6569 102.57C42.2807 107.005 50.6046 109.222 59.6286 109.222C68.5748 109.222 76.8209 107.005 84.3669 102.57C91.9906 98.1362 98.0196 92.1461 102.454 84.6002C106.966 76.9765 109.222 68.6526 109.222 59.6285C109.222 50.6045 106.966 42.3195 102.454 34.7736C98.0196 27.1499 91.9906 21.1209 84.3669 16.6867C76.8209 12.2524 68.5748 10.0353 59.6286 10.0353C50.6046 10.0353 42.2807 12.2524 34.6569 16.6867C27.111 21.1209 21.1209 27.1499 16.6867 34.7736C12.2525 42.3195 10.0354 50.6045 10.0354 59.6285C10.0354 68.6526 12.2525 76.9765 16.6867 84.6002C21.1209 92.1461 27.111 98.1362 34.6569 102.57ZM64.0628 36.6406C62.8181 37.8853 61.34 38.5077 59.6286 38.5077C57.9171 38.5077 56.4002 37.8853 55.0777 36.6406C53.833 35.3181 53.2106 33.8012 53.2106 32.0897C53.2106 30.3783 53.833 28.9002 55.0777 27.6555C56.3224 26.4108 57.8393 25.7885 59.6286 25.7885C61.4178 25.7885 62.8959 26.4108 64.0628 27.6555C65.3075 28.8224 65.9298 30.3005 65.9298 32.0897C65.9298 33.879 65.3075 35.3959 64.0628 36.6406ZM63.5961 92.5351C63.0515 93.0797 62.2736 93.3519 61.2622 93.3519H57.9949C56.9836 93.3519 56.1668 93.0797 55.5444 92.5351C54.9221 91.9906 54.6109 91.2126 54.6109 90.2013V48.3096C54.6109 47.4539 54.8832 46.7149 55.4277 46.0925C56.0501 45.4702 56.8669 45.159 57.8782 45.159H61.1456C62.3125 45.159 63.1682 45.4702 63.7127 46.0925C64.2573 46.6371 64.5296 47.3761 64.5296 48.3096V90.2013C64.5296 91.2126 64.2184 91.9906 63.5961 92.5351Z" fill="black"/>
</svg>
